# xmcd
#
# Track frame offsets:
#        187
#        16820
#        34525
#        52880
#        73872
#        96452
#        119877
#        131915
#        147345
#        167625
#        188887
#
# Disc length: 2705 seconds
#
# Revision: 0
# Processed by: cddbd v1.5.1PL0 Copyright (c) Steve Scherf et al.
# Submitted via: ExactAudioCopy v0.95a5
#
DISCID=a20a8f0b
DTITLE=Tony Macalpine - Violent Machine
DYEAR=1997
DGENRE=Hard Rock
TTITLE0=Violent Machine
TTITLE1=Unfortunate Lazarus
TTITLE2=Hatred To Love
TTITLE3=Circus du Soleil
TTITLE4=Sophisticated Domination
TTITLE5=Little Gem
TTITLE6=Chopin Etude #12 Opus 10
TTITLE7=Shoe Shine Cyber Boy
TTITLE8=Carolina Blue
TTITLE9=Out Of Touch
TTITLE10=ARS Nova
EXTD=
EXTT0=
EXTT1=
EXTT2=
EXTT3=
EXTT4=
EXTT5=
EXTT6=
EXTT7=
EXTT8=
EXTT9=
EXTT10=
PLAYORDER=
